# Blender v3.1.2 OBJ File: 'Wall.blend'
# www.blender.org
mtllib Wall_1.mtl
o Plane
v 9.000000 -0.332639 9.955030
v 9.000000 -0.332639 -0.000000
v -9.000000 -0.332639 9.955030
v -9.000000 -0.332639 -0.000000
v -9.000000 -0.332639 5.734518
v 9.000000 -0.332639 5.734518
v 9.000000 -0.332639 4.606236
v -9.000000 -0.332639 4.606236
v 9.000000 -0.145555 5.734518
v 9.000000 -0.145555 5.625418
v -9.000000 -0.145555 5.625418
v -9.000000 -0.145555 5.734518
v -9.000000 -0.169981 5.499895
v -9.000000 -0.169981 5.625418
v 9.000000 -0.169981 5.625418
v 9.000000 -0.169981 5.499895
v 9.000000 -0.114499 5.303662
v 9.000000 -0.114499 5.499895
v -9.000000 -0.114499 5.499895
v -9.000000 -0.114499 5.303662
v -9.000000 -0.059510 4.968221
v -9.000000 -0.059510 5.303662
v 9.000000 -0.059510 5.303662
v 9.000000 -0.059510 4.968221
v -9.000000 -0.127935 4.810599
v -9.000000 -0.127935 4.968221
v 9.000000 -0.127935 4.968221
v 9.000000 -0.127935 4.810599
v -9.000000 -0.182072 4.606236
v -9.000000 -0.182072 4.810599
v 9.000000 -0.182072 4.810599
v 9.000000 -0.182072 4.606236
v -9.000000 -0.332639 8.758883
v 9.000000 -0.332639 8.758883
v -9.000000 -0.332639 8.859192
v 9.000000 -0.332639 8.859192
v -9.000000 -0.332639 8.912413
v 9.000000 -0.332639 8.912413
v -9.000000 -0.332639 9.042194
v 9.000000 -0.332639 9.042194
v -9.000000 -0.332639 9.075069
v 9.000000 -0.332639 9.075069
v -9.000000 -0.332639 9.524847
v 9.000000 -0.332639 9.524847
v -9.000000 -0.332639 9.583185
v 9.000000 -0.332639 9.583185
v 9.000000 -0.304546 8.859192
v 9.000000 -0.304546 8.758883
v -9.000000 -0.304546 8.758883
v -9.000000 -0.304546 8.859192
v 9.000000 -0.275510 9.042194
v 9.000000 -0.275510 8.912413
v -9.000000 -0.275510 8.912413
v -9.000000 -0.275510 9.042194
v 9.000000 -0.258954 9.219633
v 9.000000 -0.258954 9.075069
v -9.000000 -0.258954 9.075069
v -9.000000 -0.258954 9.219633
v 9.000000 -0.228735 9.524847
v 9.000000 -0.228735 9.219633
v -9.000000 -0.228735 9.219633
v -9.000000 -0.228735 9.524847
v 9.000000 -0.263313 9.759520
v 9.000000 -0.263313 9.583185
v -9.000000 -0.263313 9.583185
v -9.000000 -0.263313 9.759520
v -9.000000 -0.332639 9.857275
v 9.000000 -0.332639 9.857275
v 9.000000 -0.290512 9.857275
v 9.000000 -0.290512 9.759520
v -9.000000 -0.290512 9.759520
v -9.000000 -0.290512 9.857275
v 9.000000 -0.332639 0.452346
v -9.000000 -0.332639 0.452346
v 9.000000 -0.000000 0.204484
v 9.000000 0.000000 0.000000
v -9.000000 0.000000 0.000000
v -9.000000 -0.000000 0.204484
v -9.000000 -0.069984 0.204484
v -9.000000 -0.069984 0.349788
v 9.000000 -0.069984 0.349788
v 9.000000 -0.069984 0.204484
v -9.000000 -0.126901 0.349788
v -9.000000 -0.126901 0.452346
v 9.000000 -0.126901 0.452346
v 9.000000 -0.126901 0.349788
vt 0.996867 0.351794
vt 0.996633 0.367840
vt -0.000256 0.368778
vt -0.000022 0.352732
vt -0.000645 0.684854
vt -0.000815 0.530347
vt 0.996073 0.529413
vt 0.996243 0.683921
vt 0.996500 0.383888
vt 0.996280 0.399934
vt -0.000609 0.400873
vt -0.000389 0.384826
vt -0.000069 0.320634
vt 0.996820 0.319695
vt 0.996955 0.335745
vt 0.000066 0.336683
vt -0.000931 0.514297
vt -0.000751 0.498250
vt 0.996138 0.497316
vt 0.995958 0.513363
vt -0.000919 0.482201
vt -0.000754 0.466153
vt 0.996135 0.465220
vt 0.995970 0.481267
vt 0.996299 0.417076
vt 0.996066 0.433122
vt -0.000823 0.434055
vt -0.000590 0.418010
vt -0.000919 0.450105
vt 0.995970 0.449171
vt -0.001159 0.749041
vt -0.000924 0.732995
vt 0.995964 0.732062
vt 0.995729 0.748107
vt -0.001640 0.813228
vt -0.001385 0.797183
vt 0.995502 0.796250
vt 0.995248 0.812295
vt 0.995499 0.764153
vt -0.001389 0.765087
vt -0.002325 0.909514
vt -0.002095 0.893468
vt 0.994792 0.892535
vt 0.994563 0.908581
vt -0.001093 0.716946
vt -0.000904 0.700899
vt 0.995985 0.699966
vt 0.995796 0.716013
vt -0.001550 0.781134
vt 0.995338 0.780201
vt -0.002001 0.845323
vt -0.001854 0.829275
vt 0.995034 0.828341
vt 0.994887 0.844389
vt -0.002248 0.877419
vt -0.002257 0.861368
vt 0.994630 0.860435
vt 0.994639 0.876486
vt -0.002659 0.941609
vt -0.002544 0.925560
vt 0.994344 0.924627
vt 0.994229 0.940676
vt -0.002707 1.005800
vt -0.002516 0.989753
vt 0.994372 0.988820
vt 0.994181 1.004867
vt -0.002682 0.973705
vt -0.002491 0.957658
vt 0.994397 0.956724
vt 0.994206 0.972771
vt -0.000303 0.108421
vt 0.996586 0.107483
vt -0.000022 0.028181
vt 0.000066 0.012132
vt 0.996955 0.011193
vt 0.996867 0.027243
vt 0.000048 -0.004859
vt 0.996936 -0.005800
vt -0.000386 0.060275
vt -0.000240 0.044227
vt 0.996649 0.043289
vt 0.996503 0.059337
vt 0.996668 0.075386
vt -0.000221 0.076324
vt -0.000408 0.092371
vt 0.996481 0.091433
vn 0.0000 0.0000 -1.0000
vn 0.0000 1.0000 0.0000
vn 0.0000 0.0000 1.0000
usemtl Material.002
s off
f 30/1/1 25/2/1 28/3/1 31/4/1
f 34/5/2 6/6/2 5/7/2 33/8/2
f 26/9/1 21/10/1 24/11/1 27/12/1
f 7/13/1 8/14/1 29/15/1 32/16/1
f 9/17/2 10/18/2 11/19/2 12/20/2
f 5/7/3 6/6/3 9/17/3 12/20/3
f 15/21/2 16/22/2 13/23/2 14/24/2
f 22/25/3 20/26/3 17/27/3 23/28/3
f 18/29/2 17/27/2 20/26/2 19/30/2
f 23/28/2 24/11/2 21/10/2 22/25/2
f 13/23/3 16/22/3 18/29/3 19/30/3
f 27/12/2 28/3/2 25/2/2 26/9/2
f 11/19/1 10/18/1 15/21/1 14/24/1
f 31/4/2 32/16/2 29/15/2 30/1/2
f 38/31/2 36/32/2 35/33/2 37/34/2
f 42/35/2 40/36/2 39/37/2 41/38/2
f 37/34/1 53/39/1 52/40/1 38/31/1
f 46/41/2 44/42/2 43/43/2 45/44/2
f 47/45/2 48/46/2 49/47/2 50/48/2
f 35/33/3 36/32/3 47/45/3 50/48/3
f 51/49/2 52/40/2 53/39/2 54/50/2
f 39/37/3 40/36/3 51/49/3 54/50/3
f 55/51/2 56/52/2 57/53/2 58/54/2
f 59/55/2 60/56/2 61/57/2 62/58/2
f 43/43/3 44/42/3 59/55/3 62/58/3
f 63/59/2 64/60/2 65/61/2 66/62/2
f 1/63/2 68/64/2 67/65/2 3/66/2
f 69/67/2 70/68/2 71/69/2 72/70/2
f 66/62/3 70/68/3 63/59/3
f 67/65/3 68/64/3 69/67/3 72/70/3
f 7/13/2 73/71/2 74/72/2 8/14/2
f 75/73/2 76/74/2 77/75/2 78/76/2
f 2/77/1 4/78/1 77/75/1 76/74/1
f 81/79/2 82/80/2 79/81/2 80/82/2
f 83/83/1 80/82/1 81/79/1 86/84/1
f 85/85/2 86/84/2 83/83/2 84/86/2
f 74/72/3 73/71/3 85/85/3 84/86/3
f 78/76/3 79/81/3 82/80/3 75/73/3
f 45/44/1 65/61/1 64/60/1 46/41/1
f 33/8/1 49/47/1 48/46/1 34/5/1
f 41/38/1 57/53/1 56/52/1 42/35/1
f 58/54/1 61/57/1 60/56/1 55/51/1
f 71/69/3 70/68/3 66/62/3
