# Blender v3.1.2 OBJ File: 'Wall.blend'
# www.blender.org
mtllib Roof.mtl
o Plane.010_Plane.015
v -9.000000 -0.000001 -0.000000
v 9.000000 0.000001 0.000000
v 9.000000 2.186948 0.000000
v -9.000000 2.186946 0.000000
v 9.000000 18.016350 2.027922
v -9.000000 18.016350 2.027922
v 9.000000 2.186948 2.027921
v -9.000000 2.186946 2.027921
vt 0.000000 0.000000
vt 0.998901 0.000000
vt 0.998901 0.109106
vt 0.000000 0.109106
vt 0.000000 0.210278
vt 0.998901 0.210278
vt 0.998901 1.000000
vt 0.000000 1.000000
vn -0.0000 0.0000 -1.0000
vn -0.0000 1.0000 0.0000
usemtl Material.003
s off
f 2/1/1 1/2/1 4/3/1 3/4/1
usemtl Material
f 7/5/1 8/6/1 6/7/1 5/8/1
f 4/3/2 8/6/2 7/5/2 3/4/2
